<?xml version="1.0" standalone="no"?>
<!DOCTYPE svg PUBLIC "-//W3C//DTD SVG 20010904//EN"
 "http://www.w3.org/TR/2001/REC-SVG-20010904/DTD/svg10.dtd">
<svg version="1.0" xmlns="http://www.w3.org/2000/svg"
 width="500.000000pt" height="500.000000pt" viewBox="0 0 500.000000 500.000000"
 preserveAspectRatio="xMidYMid meet">
<metadata>
Created by potrace 1.14, written by Peter Selinger 2001-2017
</metadata>
<g transform="translate(0.000000,500.000000) scale(0.100000,-0.100000)"
fill="#000000" stroke="none">
<path d="M4521 3349 c-42 -26 -50 -33 -87 -89 -40 -61 -58 -103 -82 -191 -26
-94 -41 -182 -46 -279 -1 -19 -5 -41 -9 -48 -5 -6 -5 -12 0 -12 4 0 8 -37 9
-83 1 -90 5 -131 23 -193 13 -47 60 -116 93 -138 36 -23 99 -26 157 -6 112 38
193 160 235 355 9 39 18 80 22 93 5 18 2 22 -15 22 -11 0 -21 -4 -21 -10 0
-19 -2 -25 -12 -37 -6 -7 -8 -13 -5 -13 10 0 -23 -101 -49 -153 -32 -63 -52
-85 -94 -106 -97 -50 -177 38 -183 201 -1 21 -4 38 -7 38 -6 0 -5 149 1 155 4
4 43 12 89 20 14 2 54 10 90 19 36 8 79 17 95 20 92 17 100 21 101 51 1 27
-11 137 -20 175 -15 67 -20 81 -27 86 -5 3 -9 14 -9 24 0 10 -22 41 -49 69
-49 50 -51 51 -108 51 -41 0 -68 -6 -92 -21z m110 -80 c30 -35 46 -96 54 -211
l6 -67 -38 -10 c-21 -6 -75 -19 -121 -29 l-83 -20 6 72 c6 82 12 116 25 151 5
14 7 25 5 25 -3 0 4 18 15 39 35 69 95 92 131 50z"/>
<path d="M4176 3263 c-53 -28 -99 -88 -143 -188 l-22 -50 -1 91 c0 78 -3 93
-17 99 -10 3 -19 1 -21 -4 -2 -6 -11 -11 -20 -11 -8 0 -12 -3 -9 -7 4 -3 -4
-13 -17 -22 -45 -30 -145 -106 -146 -111 0 -3 4 -11 9 -18 7 -12 14 -11 40 2
30 16 32 16 40 -6 4 -12 7 -33 5 -47 -1 -15 -5 -80 -9 -146 -7 -142 -13 -206
-30 -350 -22 -187 -33 -219 -85 -246 -98 -51 -78 -69 50 -44 13 2 42 7 65 10
22 3 65 10 95 15 30 5 71 11 90 14 38 5 68 35 48 47 -6 4 -31 5 -54 3 -64 -8
-82 15 -79 97 2 35 6 82 9 104 7 56 23 245 29 365 4 59 35 170 49 170 4 0 8 6
8 14 0 7 9 25 20 39 23 29 38 27 83 -10 33 -26 55 -20 84 24 17 26 19 30 23
68 10 90 -30 132 -94 98z"/>
<path d="M3476 3083 c-2 -2 -14 -6 -27 -7 -98 -13 -187 -76 -245 -172 -25 -42
-51 -119 -48 -141 1 -7 2 -22 3 -33 2 -33 45 -47 86 -27 35 17 68 65 61 89
-16 47 -14 102 4 137 31 61 111 89 150 52 20 -19 23 -35 22 -126 -2 -119 -2
-119 -15 -135 -13 -16 -73 -60 -82 -60 -3 0 -14 -8 -24 -17 -11 -10 -40 -34
-66 -53 -158 -119 -251 -249 -262 -368 -6 -64 0 -91 27 -122 17 -20 30 -24 75
-24 29 0 60 6 68 12 7 7 16 9 20 6 12 -12 134 123 164 183 l32 63 -3 -72 c-4
-105 20 -141 91 -135 23 2 53 11 66 20 26 17 93 97 82 97 -4 0 -3 6 3 13 10
12 17 36 29 101 5 25 4 27 -13 18 -11 -6 -20 -21 -21 -34 -3 -36 -29 -91 -52
-112 -42 -38 -59 15 -37 124 2 14 7 45 10 70 3 25 8 59 11 75 2 17 7 47 10 69
3 21 8 42 11 47 3 5 0 9 -6 9 -6 0 -8 5 -4 11 4 6 8 25 10 43 26 224 16 308
-41 362 -30 28 -78 48 -89 37z m-12 -450 c-5 -44 -14 -116 -18 -143 -11 -78
-89 -207 -151 -248 -47 -32 -69 -34 -92 -12 -44 40 -5 170 77 264 38 42 175
166 184 166 1 0 1 -12 0 -27z"/>
<path d="M1655 2963 c-67 -55 -170 -133 -177 -133 -5 0 -8 -9 -8 -21 l0 -20
29 20 c55 40 59 28 28 -84 -6 -22 -11 -42 -12 -45 -13 -60 -95 -323 -105 -335
-5 -5 -9 -14 -10 -20 -1 -5 -6 -20 -11 -33 -5 -13 -9 -27 -9 -31 0 -5 -8 -26
-17 -47 -9 -22 -18 -43 -19 -49 -1 -5 -12 -32 -25 -60 -12 -27 -23 -52 -23
-55 -3 -19 -63 -150 -80 -175 -34 -49 -52 -62 -105 -71 -8 -2 -21 -10 -30 -18
-21 -21 -11 -23 69 -11 25 4 59 9 75 11 17 3 45 6 62 7 18 1 33 4 33 7 0 3 8
6 18 6 59 2 115 24 100 39 -3 3 -19 7 -34 8 -22 2 -30 8 -32 25 -2 12 26 95
61 185 65 162 126 336 167 477 12 41 26 89 31 105 15 50 51 199 53 220 1 11 5
26 9 33 5 6 6 12 3 12 -2 0 -1 13 4 29 12 44 -8 55 -45 24z"/>
<path d="M2860 2923 c-42 -13 -105 -49 -129 -72 -44 -44 -111 -128 -111 -140
0 -6 -4 -11 -9 -11 -6 0 -8 10 -5 23 2 12 7 38 10 57 3 19 7 40 9 47 2 6 -2
16 -8 22 -9 7 -43 -11 -117 -60 -120 -79 -125 -83 -115 -98 4 -8 16 -6 36 6
26 16 31 16 39 3 5 -8 8 -22 5 -30 -2 -8 -7 -30 -10 -48 -3 -18 -12 -61 -20
-95 -8 -33 -12 -63 -10 -66 3 -2 1 -9 -4 -15 -5 -6 -12 -28 -15 -50 -4 -21 -8
-41 -11 -45 -2 -4 -6 -18 -9 -32 -16 -74 -35 -138 -45 -157 -6 -12 -9 -22 -5
-22 3 0 1 -7 -6 -15 -7 -8 -10 -15 -6 -15 9 0 -22 -71 -40 -91 -8 -9 -32 -22
-54 -29 -22 -7 -40 -17 -40 -22 0 -4 0 -11 0 -15 0 -9 30 -8 75 2 17 4 44 8
60 10 17 1 30 4 30 5 0 1 14 3 30 6 17 2 41 6 55 8 14 2 33 5 42 5 18 1 48 27
48 41 0 5 -9 7 -19 5 -11 -2 -27 2 -37 9 -20 15 -19 20 36 231 17 66 34 134
36 150 3 17 9 44 14 60 5 17 12 50 15 75 4 25 13 57 21 71 22 45 131 147 164
154 38 8 70 -2 71 -23 5 -54 1 -94 -16 -197 -5 -26 -8 -42 -22 -105 -2 -8 -5
-26 -7 -40 -4 -22 -13 -61 -42 -185 -4 -16 -8 -34 -10 -40 -2 -5 -5 -20 -8
-32 -11 -51 -38 -85 -82 -104 -45 -19 -56 -46 -19 -42 39 3 111 13 135 18 34
7 98 17 135 20 25 3 55 27 55 45 0 4 -13 5 -28 2 -38 -5 -61 18 -55 55 2 15
11 57 20 93 8 36 17 74 18 85 2 11 7 34 10 50 4 17 8 39 9 50 2 11 8 45 14 75
6 30 14 71 16 90 3 19 8 46 11 60 10 47 12 165 3 197 -12 46 -66 79 -108 66z"/>
<path d="M1209 2795 c-2 -1 -20 -5 -39 -8 -19 -2 -102 -26 -185 -53 -82 -26
-152 -49 -155 -49 -69 -17 -130 -41 -135 -53 -8 -21 0 -25 23 -13 30 16 79 14
85 -4 4 -8 2 -17 -3 -20 -5 -3 -7 -12 -3 -20 3 -8 0 -15 -7 -15 -6 0 -9 -4 -6
-8 2 -4 -2 -21 -9 -37 -8 -17 -22 -50 -33 -75 -10 -25 -27 -65 -37 -90 -55
-130 -256 -516 -311 -597 -39 -58 -54 -66 -201 -109 -17 -5 -16 -24 1 -24 7 0
36 4 64 10 28 5 73 12 99 15 26 4 55 8 63 10 8 3 33 7 55 10 22 4 51 8 65 11
14 3 39 7 55 10 17 2 39 6 50 8 11 3 23 5 28 5 4 1 7 7 7 14 0 10 -17 13 -59
13 -33 -1 -63 2 -67 7 -6 6 175 378 195 399 3 3 35 8 71 11 98 8 156 27 257
82 102 56 185 136 239 232 19 34 35 64 34 65 -1 2 4 17 10 33 12 31 19 63 24
112 3 37 -26 96 -56 111 -22 11 -112 25 -119 17z m-20 -84 c44 -24 52 -79 25
-172 -9 -30 -15 -56 -14 -58 1 -2 -2 -7 -7 -10 -4 -3 -17 -24 -28 -46 -47 -95
-184 -201 -285 -220 -34 -6 -91 -7 -97 -1 -2 1 6 21 17 44 11 22 20 48 20 57
0 8 5 15 10 15 6 0 10 7 10 16 0 9 6 28 14 42 14 26 87 214 100 258 10 33 141
93 192 88 12 -1 31 -7 43 -13z"/>
<path d="M2012 2701 c-138 -51 -257 -170 -276 -277 -10 -53 34 -70 93 -36 37
21 54 58 56 123 2 58 28 92 92 120 47 22 92 13 94 -18 5 -62 -1 -107 -20 -156
-6 -16 -9 -32 -6 -37 3 -5 -12 -18 -32 -31 -271 -161 -394 -265 -452 -380 -34
-68 -39 -122 -15 -154 23 -30 114 -27 179 7 58 31 130 98 175 163 31 45 49 61
31 26 -6 -10 -7 -21 -4 -25 3 -3 2 -6 -3 -6 -5 0 -10 -22 -12 -48 -2 -36 2
-53 15 -64 19 -16 83 -30 83 -18 0 4 13 10 30 13 42 9 108 79 140 151 16 33
27 62 25 64 -9 10 -36 -15 -45 -44 -14 -41 -74 -108 -92 -102 -19 7 -13 63 16
146 14 41 28 83 30 95 3 12 14 51 25 87 34 108 70 273 68 310 -6 94 -85 131
-195 91z m-2 -396 c-7 -20 -13 -42 -14 -48 -9 -39 -48 -127 -58 -127 -4 0 -8
-6 -8 -13 0 -15 -87 -108 -123 -131 -33 -22 -87 -37 -87 -25 0 6 -4 8 -9 4
-14 -8 -23 29 -15 62 8 32 46 96 78 132 21 23 141 121 185 151 13 8 30 20 39
27 24 16 26 10 12 -32z"/>
</g>
</svg>
